# xmcd CD database file
#
# Track frame offsets:
#	150
#	16433
#	34337
#	52056
#	66358
#	79100
#	98271
#	117662
#	132437
#	155340
#	165274
#
# Disc length: 2489 seconds
#
# Revision: 0
# Processed by: cddbd v1.5.1PL2 Copyright (c) Steve Scherf et al.
# Submitted via: CDex 1.51
#
DISCID=8c09b70b
DTITLE=Gator Beat - See Ya Later, Alligator
DYEAR=1997
DGENRE=Jazz
TTITLE0=See Ya Later, Alligator
TTITLE1=Po-Yi-Yi
TTITLE2=Donne-moi de l'Eau
TTITLE3=Le Soleil s'est Couche
TTITLE4=Pauvre Charlie
TTITLE5=Zydeco Wine
TTITLE6=Jolie Catin
TTITLE7=Tu t'en Fou
TTITLE8=Just an Angel
TTITLE9=Uncle Bud
TTITLE10=Geronimo
EXTD=YEAR: 1997
EXTT0=
EXTT1=
EXTT2=
EXTT3=
EXTT4=
EXTT5=
EXTT6=
EXTT7=
EXTT8=
EXTT9=
EXTT10=
PLAYORDER=
